<svg width="1200" height="630" viewBox="0 0 1200 630" fill="none" xmlns="http://www.w3.org/2000/svg">
  <defs>
    <linearGradient id="bg" x1="120" y1="80" x2="1080" y2="550" gradientUnits="userSpaceOnUse">
      <stop stop-color="#0B1220"/>
      <stop offset="1" stop-color="#121C30"/>
    </linearGradient>
    <linearGradient id="accent" x1="205" y1="450" x2="980" y2="110" gradientUnits="userSpaceOnUse">
      <stop stop-color="#F59E0B"/>
      <stop offset="0.55" stop-color="#F97316"/>
      <stop offset="1" stop-color="#FB7185"/>
    </linearGradient>
    <filter id="blur" x="-30%" y="-30%" width="160%" height="160%">
      <feGaussianBlur stdDeviation="40"/>
    </filter>
  </defs>

  <rect width="1200" height="630" rx="28" fill="url(#bg)"/>
  <circle cx="955" cy="128" r="118" fill="#F97316" fill-opacity="0.16" filter="url(#blur)"/>
  <circle cx="870" cy="492" r="144" fill="#F59E0B" fill-opacity="0.12" filter="url(#blur)"/>
  <path d="M192 454C347 362 452 284 603 220C752 157 860 156 1006 185" stroke="url(#accent)" stroke-width="4" stroke-linecap="round"/>
  <circle cx="401" cy="333" r="8" fill="#FDBA74"/>
  <circle cx="603" cy="220" r="10" fill="#FB7185"/>
  <circle cx="806" cy="177" r="8" fill="#FCD34D"/>

  <text x="110" y="144" fill="#F59E0B" font-family="-apple-system, BlinkMacSystemFont, 'Segoe UI', sans-serif" font-size="28" font-weight="700" letter-spacing="0.22em">VESPID.AI</text>
  <text x="110" y="274" fill="#F8FAFC" font-family="-apple-system, BlinkMacSystemFont, 'Segoe UI', sans-serif" font-size="72" font-weight="800">Operator-grade systems,</text>
  <text x="110" y="356" fill="#F8FAFC" font-family="-apple-system, BlinkMacSystemFont, 'Segoe UI', sans-serif" font-size="72" font-weight="800">documented in public.</text>
  <text x="110" y="430" fill="#94A3B8" font-family="-apple-system, BlinkMacSystemFont, 'Segoe UI', sans-serif" font-size="30" font-weight="500">Projects, field notes, and operator-grade docs.</text>

  <g transform="translate(110 490)">
    <rect width="204" height="62" rx="31" fill="#111827" stroke="#243041"/>
    <text x="28" y="39" fill="#E2E8F0" font-family="-apple-system, BlinkMacSystemFont, 'Segoe UI', sans-serif" font-size="24" font-weight="700">1 flagship lane</text>
  </g>
  <g transform="translate(336 490)">
    <rect width="194" height="62" rx="31" fill="#111827" stroke="#243041"/>
    <text x="28" y="39" fill="#E2E8F0" font-family="-apple-system, BlinkMacSystemFont, 'Segoe UI', sans-serif" font-size="24" font-weight="700">3 content rails</text>
  </g>
  <g transform="translate(552 490)">
    <rect width="164" height="62" rx="31" fill="#111827" stroke="#243041"/>
    <text x="28" y="39" fill="#E2E8F0" font-family="-apple-system, BlinkMacSystemFont, 'Segoe UI', sans-serif" font-size="24" font-weight="700">9 live pages</text>
  </g>
</svg>
